# xmcd
#
# Track frame offsets: 
#        150
#        14325
#        29525
#        42567
#        55147
#        68947
#        84120
#        97250
#        109430
#        122122
#        136497
#        150647
#        165317
#        179720
#        193370
#        207040
#        220242
#        235290
#        249180
#        263960
#        279150
#        292262
#        306945
#        320605
#
# Disc length: 4437 seconds
#
# Revision: 0
# Processed by: cddbd v1.5.1PL0 Copyright (c) Steve Scherf et al.
# Submitted via: ExactAudioCopy v0.95a5
#
DISCID=70115318
DTITLE=Various Artist - Chicago Piano (1929-1936)
DYEAR=1900
DGENRE=
TTITLE0=John Oscar - In the Gutter
TTITLE1=John Oscar - Mama Don't Allow No Easy Riders Here
TTITLE2=Eddie Miller - Good Jelly Blues
TTITLE3=Eddie Miller - Freight Train Blues
TTITLE4=Eddie Miller - School Day Blues
TTITLE5=John Oscar - Dyin' Mother Blues
TTITLE6=John Oscar - Whoopee Mama Blues
TTITLE7=John Oscar - Mistreatment Blues
TTITLE8=John Oscar - Other Man Blues
TTITLE9=Eddie Morgan - My Gal Blues
TTITLE10=Eddie Morgan - Rock House Blues
TTITLE11=Eddie Miller - I'd Rather Drink Muddy Water [take 1]
TTITLE12=Eddie Miller - I'd Rather Drink Muddy Water [take 2]
TTITLE13=Eddie Miller - Whoopie
TTITLE14=Eddie Miller - I'd Rather Drink Muddy Water
TTITLE15=Eddie Miller - Get Business on Your Mind
TTITLE16=George Noble - New Milk Cow Blues
TTITLE17=George Noble - On My Death-Bed
TTITLE18=George Noble - The Seminole Blues
TTITLE19=George Noble - Dozing Blues
TTITLE20=George Noble - Sissy Man Blues
TTITLE21=George Noble - Bed Springs Blues
TTITLE22=George Noble - If You Lose Your Good Gal, Don't Mess with Min
TTITLE22=e
TTITLE23=George Noble - T. B. Blues
EXTD=
EXTT0=
EXTT1=
EXTT2=
EXTT3=
EXTT4=
EXTT5=
EXTT6=
EXTT7=
EXTT8=
EXTT9=
EXTT10=
EXTT11=
EXTT12=
EXTT13=
EXTT14=
EXTT15=
EXTT16=
EXTT17=
EXTT18=
EXTT19=
EXTT20=
EXTT21=
EXTT22=
EXTT23=
PLAYORDER=
